<mxfile host="Electron" agent="Mozilla/5.0 (Windows NT 10.0; Win64; x64) AppleWebKit/537.36 (KHTML, like Gecko) draw.io/24.7.5 Chrome/126.0.6478.183 Electron/31.3.0 Safari/537.36" version="24.7.5">
  <diagram name="Page-1" id="KjAETgc_FrhAbORQSuso">
    <mxGraphModel dx="414" dy="242" grid="1" gridSize="10" guides="1" tooltips="1" connect="1" arrows="1" fold="1" page="1" pageScale="1" pageWidth="1169" pageHeight="827" math="0" shadow="0">
      <root>
        <mxCell id="0" />
        <mxCell id="1" parent="0" />
        <mxCell id="8H6grymj_e4dAiIGrbi4-1" value="" style="rounded=0;whiteSpace=wrap;html=1;" vertex="1" parent="1">
          <mxGeometry x="360" y="40" width="160" height="300" as="geometry" />
        </mxCell>
        <mxCell id="8H6grymj_e4dAiIGrbi4-5" value="&amp;nbsp; load_done_i" style="endArrow=classic;html=1;rounded=0;labelBackgroundColor=none;" edge="1" parent="1">
          <mxGeometry x="1" y="30" width="50" height="50" relative="1" as="geometry">
            <mxPoint x="320" y="140" as="sourcePoint" />
            <mxPoint x="360" y="140" as="targetPoint" />
            <mxPoint x="30" y="30" as="offset" />
          </mxGeometry>
        </mxCell>
        <mxCell id="8H6grymj_e4dAiIGrbi4-6" value="load_start_o&amp;nbsp; &amp;nbsp;" style="endArrow=classic;html=1;rounded=0;exitX=1.001;exitY=0.113;exitDx=0;exitDy=0;exitPerimeter=0;labelBackgroundColor=none;" edge="1" parent="1">
          <mxGeometry x="-1" y="30" width="50" height="50" relative="1" as="geometry">
            <mxPoint x="519.9999999999999" y="140.34000000000003" as="sourcePoint" />
            <mxPoint x="559.84" y="140" as="targetPoint" />
            <mxPoint x="-30" y="30" as="offset" />
          </mxGeometry>
        </mxCell>
        <mxCell id="8H6grymj_e4dAiIGrbi4-7" value="" style="ellipse;whiteSpace=wrap;html=1;aspect=fixed;" vertex="1" parent="1">
          <mxGeometry x="435" y="340" width="10" height="10" as="geometry" />
        </mxCell>
        <mxCell id="8H6grymj_e4dAiIGrbi4-8" value="" style="triangle;whiteSpace=wrap;html=1;" vertex="1" parent="1">
          <mxGeometry x="360" y="310" width="10" height="20" as="geometry" />
        </mxCell>
        <mxCell id="8H6grymj_e4dAiIGrbi4-17" value="&lt;span style=&quot;font-size: 15px;&quot;&gt;&lt;b&gt;TOP_CTRL&lt;/b&gt;&lt;/span&gt;" style="text;html=1;align=center;verticalAlign=middle;whiteSpace=wrap;rounded=0;" vertex="1" parent="1">
          <mxGeometry x="360" y="40" width="160" height="30" as="geometry" />
        </mxCell>
        <mxCell id="8H6grymj_e4dAiIGrbi4-18" value="" style="endArrow=none;html=1;rounded=0;entryX=0;entryY=0.5;entryDx=0;entryDy=0;" edge="1" parent="1" target="8H6grymj_e4dAiIGrbi4-8">
          <mxGeometry width="50" height="50" relative="1" as="geometry">
            <mxPoint x="320" y="320" as="sourcePoint" />
            <mxPoint x="420" y="270" as="targetPoint" />
          </mxGeometry>
        </mxCell>
        <mxCell id="8H6grymj_e4dAiIGrbi4-19" value="&amp;nbsp; &amp;nbsp; sys_start" style="endArrow=classic;html=1;rounded=0;labelBackgroundColor=none;" edge="1" parent="1">
          <mxGeometry x="1" y="20" width="50" height="50" relative="1" as="geometry">
            <mxPoint x="320" y="80" as="sourcePoint" />
            <mxPoint x="360" y="80" as="targetPoint" />
            <mxPoint x="20" y="20" as="offset" />
          </mxGeometry>
        </mxCell>
        <mxCell id="8H6grymj_e4dAiIGrbi4-22" value="sys_done" style="endArrow=classic;html=1;rounded=0;labelBackgroundColor=none;" edge="1" parent="1">
          <mxGeometry x="-1" y="-30" width="50" height="50" relative="1" as="geometry">
            <mxPoint x="520" y="80" as="sourcePoint" />
            <mxPoint x="560" y="80" as="targetPoint" />
            <mxPoint x="-30" y="-30" as="offset" />
          </mxGeometry>
        </mxCell>
        <mxCell id="8H6grymj_e4dAiIGrbi4-23" value="sys_x_total" style="endArrow=classic;html=1;rounded=0;labelBackgroundColor=none;" edge="1" parent="1">
          <mxGeometry x="1" y="30" width="50" height="50" relative="1" as="geometry">
            <mxPoint x="320" y="240" as="sourcePoint" />
            <mxPoint x="360" y="240" as="targetPoint" />
            <mxPoint x="30" y="30" as="offset" />
          </mxGeometry>
        </mxCell>
        <mxCell id="8H6grymj_e4dAiIGrbi4-24" value="sys_y_total" style="endArrow=classic;html=1;rounded=0;labelBackgroundColor=none;" edge="1" parent="1">
          <mxGeometry x="1" y="30" width="50" height="50" relative="1" as="geometry">
            <mxPoint x="320" y="279.31" as="sourcePoint" />
            <mxPoint x="360" y="279.31" as="targetPoint" />
            <mxPoint x="30" y="30" as="offset" />
          </mxGeometry>
        </mxCell>
        <mxCell id="8H6grymj_e4dAiIGrbi4-25" value="frame_start&amp;nbsp;&amp;nbsp;" style="endArrow=classic;html=1;rounded=0;labelBackgroundColor=none;" edge="1" parent="1">
          <mxGeometry x="-1" y="-30" width="50" height="50" relative="1" as="geometry">
            <mxPoint x="520" y="100" as="sourcePoint" />
            <mxPoint x="560" y="100" as="targetPoint" />
            <mxPoint x="-30" y="-30" as="offset" />
          </mxGeometry>
        </mxCell>
        <mxCell id="8H6grymj_e4dAiIGrbi4-26" value="frame_done&amp;nbsp; &amp;nbsp;" style="endArrow=classic;html=1;rounded=0;labelBackgroundColor=none;" edge="1" parent="1">
          <mxGeometry x="-1" y="-30" width="50" height="50" relative="1" as="geometry">
            <mxPoint x="520" y="120" as="sourcePoint" />
            <mxPoint x="560" y="120" as="targetPoint" />
            <mxPoint x="-30" y="-30" as="offset" />
          </mxGeometry>
        </mxCell>
        <mxCell id="8H6grymj_e4dAiIGrbi4-27" value="&amp;nbsp; intra_done_i" style="endArrow=classic;html=1;rounded=0;labelBackgroundColor=none;" edge="1" parent="1">
          <mxGeometry x="1" y="30" width="50" height="50" relative="1" as="geometry">
            <mxPoint x="320.08" y="160" as="sourcePoint" />
            <mxPoint x="360.08" y="160" as="targetPoint" />
            <mxPoint x="30" y="30" as="offset" />
          </mxGeometry>
        </mxCell>
        <mxCell id="8H6grymj_e4dAiIGrbi4-28" value="intra_start_o&amp;nbsp; &amp;nbsp;" style="endArrow=classic;html=1;rounded=0;exitX=1.001;exitY=0.113;exitDx=0;exitDy=0;exitPerimeter=0;labelBackgroundColor=none;" edge="1" parent="1">
          <mxGeometry x="-1" y="30" width="50" height="50" relative="1" as="geometry">
            <mxPoint x="520.0799999999999" y="160.34000000000003" as="sourcePoint" />
            <mxPoint x="559.9200000000001" y="160" as="targetPoint" />
            <mxPoint x="-30" y="30" as="offset" />
          </mxGeometry>
        </mxCell>
        <mxCell id="8H6grymj_e4dAiIGrbi4-29" value="&amp;nbsp; &amp;nbsp; &amp;nbsp; ec_done_i" style="endArrow=classic;html=1;rounded=0;labelBackgroundColor=none;" edge="1" parent="1">
          <mxGeometry x="1" y="20" width="50" height="50" relative="1" as="geometry">
            <mxPoint x="320.08" y="180" as="sourcePoint" />
            <mxPoint x="360.08" y="180" as="targetPoint" />
            <mxPoint x="20" y="20" as="offset" />
          </mxGeometry>
        </mxCell>
        <mxCell id="8H6grymj_e4dAiIGrbi4-30" value="ec_start_o" style="endArrow=classic;html=1;rounded=0;exitX=1.001;exitY=0.113;exitDx=0;exitDy=0;exitPerimeter=0;labelBackgroundColor=none;" edge="1" parent="1">
          <mxGeometry x="-1" y="30" width="50" height="50" relative="1" as="geometry">
            <mxPoint x="520.0799999999999" y="180.34000000000003" as="sourcePoint" />
            <mxPoint x="559.9200000000001" y="180" as="targetPoint" />
            <mxPoint x="-30" y="30" as="offset" />
          </mxGeometry>
        </mxCell>
        <mxCell id="8H6grymj_e4dAiIGrbi4-31" value="" style="group" vertex="1" connectable="0" parent="1">
          <mxGeometry x="520" y="200" width="40" height="20" as="geometry" />
        </mxCell>
        <mxCell id="8H6grymj_e4dAiIGrbi4-9" value="mb_x_load" style="endArrow=classic;html=1;rounded=0;exitX=1;exitY=0.25;exitDx=0;exitDy=0;" edge="1" parent="8H6grymj_e4dAiIGrbi4-31">
          <mxGeometry x="-1" y="-30" width="50" height="50" relative="1" as="geometry">
            <mxPoint y="19.99999999999997" as="sourcePoint" />
            <mxPoint x="40" y="20" as="targetPoint" />
            <mxPoint x="-30" y="-30" as="offset" />
          </mxGeometry>
        </mxCell>
        <mxCell id="8H6grymj_e4dAiIGrbi4-14" value="8" style="text;html=1;align=center;verticalAlign=middle;whiteSpace=wrap;rounded=0;" vertex="1" parent="8H6grymj_e4dAiIGrbi4-31">
          <mxGeometry width="30" height="20" as="geometry" />
        </mxCell>
        <mxCell id="8H6grymj_e4dAiIGrbi4-32" value="" style="group" vertex="1" connectable="0" parent="1">
          <mxGeometry x="520" y="220" width="40" height="20" as="geometry" />
        </mxCell>
        <mxCell id="8H6grymj_e4dAiIGrbi4-33" value="mb_y_load" style="endArrow=classic;html=1;rounded=0;exitX=1;exitY=0.25;exitDx=0;exitDy=0;" edge="1" parent="8H6grymj_e4dAiIGrbi4-32">
          <mxGeometry x="-1" y="-30" width="50" height="50" relative="1" as="geometry">
            <mxPoint y="19.99999999999997" as="sourcePoint" />
            <mxPoint x="40" y="20" as="targetPoint" />
            <mxPoint x="-30" y="-30" as="offset" />
          </mxGeometry>
        </mxCell>
        <mxCell id="8H6grymj_e4dAiIGrbi4-34" value="8" style="text;html=1;align=center;verticalAlign=middle;whiteSpace=wrap;rounded=0;" vertex="1" parent="8H6grymj_e4dAiIGrbi4-32">
          <mxGeometry width="30" height="20" as="geometry" />
        </mxCell>
        <mxCell id="8H6grymj_e4dAiIGrbi4-35" value="" style="group" vertex="1" connectable="0" parent="1">
          <mxGeometry x="520" y="240" width="40" height="20" as="geometry" />
        </mxCell>
        <mxCell id="8H6grymj_e4dAiIGrbi4-36" value="mb_x_intra" style="endArrow=classic;html=1;rounded=0;exitX=1;exitY=0.25;exitDx=0;exitDy=0;" edge="1" parent="8H6grymj_e4dAiIGrbi4-35">
          <mxGeometry x="-1" y="-30" width="50" height="50" relative="1" as="geometry">
            <mxPoint y="19.99999999999997" as="sourcePoint" />
            <mxPoint x="40" y="20" as="targetPoint" />
            <mxPoint x="-30" y="-30" as="offset" />
          </mxGeometry>
        </mxCell>
        <mxCell id="8H6grymj_e4dAiIGrbi4-37" value="8" style="text;html=1;align=center;verticalAlign=middle;whiteSpace=wrap;rounded=0;" vertex="1" parent="8H6grymj_e4dAiIGrbi4-35">
          <mxGeometry width="30" height="20" as="geometry" />
        </mxCell>
        <mxCell id="8H6grymj_e4dAiIGrbi4-38" value="" style="group" vertex="1" connectable="0" parent="1">
          <mxGeometry x="520" y="260" width="40" height="20" as="geometry" />
        </mxCell>
        <mxCell id="8H6grymj_e4dAiIGrbi4-39" value="mb_y_intra" style="endArrow=classic;html=1;rounded=0;exitX=1;exitY=0.25;exitDx=0;exitDy=0;" edge="1" parent="8H6grymj_e4dAiIGrbi4-38">
          <mxGeometry x="-1" y="-30" width="50" height="50" relative="1" as="geometry">
            <mxPoint y="19.99999999999997" as="sourcePoint" />
            <mxPoint x="40" y="20" as="targetPoint" />
            <mxPoint x="-30" y="-30" as="offset" />
          </mxGeometry>
        </mxCell>
        <mxCell id="8H6grymj_e4dAiIGrbi4-40" value="8" style="text;html=1;align=center;verticalAlign=middle;whiteSpace=wrap;rounded=0;" vertex="1" parent="8H6grymj_e4dAiIGrbi4-38">
          <mxGeometry width="30" height="20" as="geometry" />
        </mxCell>
        <mxCell id="8H6grymj_e4dAiIGrbi4-41" value="" style="group" vertex="1" connectable="0" parent="1">
          <mxGeometry x="520" y="280" width="40" height="20" as="geometry" />
        </mxCell>
        <mxCell id="8H6grymj_e4dAiIGrbi4-42" value="mb_x_ec" style="endArrow=classic;html=1;rounded=0;exitX=1;exitY=0.25;exitDx=0;exitDy=0;" edge="1" parent="8H6grymj_e4dAiIGrbi4-41">
          <mxGeometry x="-1" y="-30" width="50" height="50" relative="1" as="geometry">
            <mxPoint y="19.99999999999997" as="sourcePoint" />
            <mxPoint x="40" y="20" as="targetPoint" />
            <mxPoint x="-30" y="-30" as="offset" />
          </mxGeometry>
        </mxCell>
        <mxCell id="8H6grymj_e4dAiIGrbi4-43" value="8" style="text;html=1;align=center;verticalAlign=middle;whiteSpace=wrap;rounded=0;" vertex="1" parent="8H6grymj_e4dAiIGrbi4-41">
          <mxGeometry width="30" height="20" as="geometry" />
        </mxCell>
        <mxCell id="8H6grymj_e4dAiIGrbi4-45" value="mb_y_ec" style="endArrow=classic;html=1;rounded=0;exitX=1;exitY=0.25;exitDx=0;exitDy=0;" edge="1" parent="1">
          <mxGeometry x="-1" y="-30" width="50" height="50" relative="1" as="geometry">
            <mxPoint x="520" y="320" as="sourcePoint" />
            <mxPoint x="560" y="320" as="targetPoint" />
            <mxPoint x="-30" y="-30" as="offset" />
          </mxGeometry>
        </mxCell>
        <mxCell id="8H6grymj_e4dAiIGrbi4-46" value="8" style="text;html=1;align=center;verticalAlign=middle;whiteSpace=wrap;rounded=0;" vertex="1" parent="1">
          <mxGeometry x="520" y="300" width="30" height="20" as="geometry" />
        </mxCell>
        <mxCell id="8H6grymj_e4dAiIGrbi4-50" value="8" style="text;html=1;align=center;verticalAlign=middle;whiteSpace=wrap;rounded=0;" vertex="1" parent="1">
          <mxGeometry x="320" y="220" width="30" height="20" as="geometry" />
        </mxCell>
        <mxCell id="8H6grymj_e4dAiIGrbi4-51" value="8" style="text;html=1;align=center;verticalAlign=middle;whiteSpace=wrap;rounded=0;" vertex="1" parent="1">
          <mxGeometry x="320" y="260" width="30" height="20" as="geometry" />
        </mxCell>
      </root>
    </mxGraphModel>
  </diagram>
</mxfile>
